<svg viewBox="0 0 512 512" xmlns="http://www.w3.org/2000/svg">
  <defs>
    <linearGradient id="bg" x1="0" y1="0" x2="1" y2="1">
      <stop offset="0%" stop-color="#18081A"/>
      <stop offset="100%" stop-color="#100510"/>
    </linearGradient>
    <linearGradient id="k1" x1="0" y1="0" x2="0" y2="1">
      <stop offset="0%" stop-color="#6050E0"/>
      <stop offset="100%" stop-color="#3828A8"/>
    </linearGradient>
    <linearGradient id="k2" x1="0" y1="0" x2="0" y2="1">
      <stop offset="0%" stop-color="#E050C0"/>
      <stop offset="100%" stop-color="#A82888"/>
    </linearGradient>
    <linearGradient id="k3" x1="0" y1="0" x2="0" y2="1">
      <stop offset="0%" stop-color="#FF80B0"/>
      <stop offset="100%" stop-color="#D04878"/>
    </linearGradient>
    <filter id="sh" x="-30%" y="-30%" width="160%" height="160%">
      <feDropShadow dx="0" dy="8" stdDeviation="14" flood-color="#000" flood-opacity="0.5"/>
    </filter>
  </defs>
  <rect width="512" height="512" rx="112" fill="url(#bg)"/>
  <g transform="translate(28, 32) rotate(-8, 79, 79)" filter="url(#sh)">
    <rect x="4" y="5" width="158" height="158" rx="33" fill="#201060"/>
    <rect width="158" height="158" rx="33" fill="url(#k1)"/>
    <text x="79" y="115" text-anchor="middle" font-size="95" fill="white" fill-opacity="0.8"
          font-family="SF Pro Display, -apple-system, system-ui" font-weight="300">⌃</text>
  </g>
  <g transform="translate(255, 25) rotate(5, 103, 103)" filter="url(#sh)">
    <rect x="5" y="5" width="205" height="205" rx="41" fill="#601848"/>
    <rect width="205" height="205" rx="41" fill="url(#k2)"/>
    <text x="103" y="148" text-anchor="middle" font-size="128" fill="white" fill-opacity="0.87"
          font-family="SF Pro Display, -apple-system, system-ui" font-weight="200">⌘</text>
  </g>
  <g transform="translate(100, 200)" filter="url(#sh)">
    <rect x="6" y="7" width="305" height="280" rx="60" fill="#A82888"/>
    <rect width="305" height="280" rx="60" fill="url(#k3)"/>
    <text x="153" y="202" text-anchor="middle" font-size="210" fill="white" fill-opacity="0.95"
          font-family="SF Pro Display, -apple-system, system-ui" font-weight="600">K</text>
  </g>
</svg>